<!-- Generated by IcoMoon.io -->
<svg version="1.1" xmlns="http://www.w3.org/2000/svg" width="32" height="32" viewBox="0 0 32 32">
<path d="M31.976 10.361h-13.59l6.795 11.201s6.795-11.201 6.795-11.201z"></path>
<path d="M13.614 10.361h-13.59l6.795 11.201 6.795-11.201z"></path>
<path d="M21.824 21.639l-0.291-0.352c-0.184 0.122-0.375 0.24-0.57 0.352h0.861z"></path>
<path d="M21.932 21.639h0.863l-0.461-0.761-0.401 0.761z"></path>
<path d="M22.794 21.639l-2.212-3.649s-0.17-0.28-0.17-0.28v0l-0.911-1.501s-0.343-0.564-0.343-0.564v0l-3.159-5.207-1.881 3.101s-1.658 2.734-1.658 2.734v0l-0.709 1.169s-1.502 2.476-1.502 2.476v0l-0.261 0.431-0.783 1.29s13.59 0 13.59 0z"></path>
</svg>
