<!-- Generated by IcoMoon.io -->
<svg version="1.1" xmlns="http://www.w3.org/2000/svg" width="39" height="32" viewBox="0 0 39 32">
<path d="M33.782 9.355c-1.345-1.049-10.599-8.261-11.47-8.783-0.938-0.563-2.252-0.938-3.377 0s0 2.252 0 2.252l4.927 3.94c-5.25 0-10.5 0-15.75 0-1.373 0-2.52 1.424-2.52 2.312 0 0.681 0.584 2.39 2.52 2.39h6.745l-13.854 10.723c-1.497 1.456-0.985 2.844-0.584 3.362 0.523 0.675 2.192 1.099 3.357 0.22 2.709-2.098 5.419-4.194 8.128-6.291 0.084 6.927 6.18 12.52 13.693 12.52 7.565 0 13.697-5.182 13.697-12.177-0.002-4.158-2.167-8.019-5.513-10.468zM25.784 26.184c-4.559 0-8.349-4.047-8.349-7.88s3.79-7.693 8.349-7.693 8.349 3.86 8.349 7.693c0 3.833-3.79 7.88-8.349 7.88z"></path>
<path d="M31.131 18.397c0 2.694-2.394 4.878-5.347 4.878s-5.347-2.184-5.347-4.878c0-2.694 2.394-4.878 5.347-4.878s5.347 2.184 5.347 4.878z"></path>
</svg>
