<!-- Generated by IcoMoon.io -->
<svg version="1.1" xmlns="http://www.w3.org/2000/svg" width="32" height="32" viewBox="0 0 32 32">
<path d="M15.991 11.543c0 0 0.001 0 0.001 0 1.587 0 2.996 0.758 3.886 1.932l0.009 0.012 1.133-1.152c-1.199-1.468-3.008-2.397-5.035-2.397-3.582 0-6.486 2.904-6.486 6.486s2.904 6.486 6.486 6.486c2.079 0 3.93-0.978 5.117-2.5l0.011-0.014-1.156-1.125c-0.896 1.233-2.333 2.026-3.956 2.026-2.692 0-4.875-2.183-4.875-4.875 0-2.689 2.178-4.87 4.866-4.875h0.001zM22.098 11.236l1.125-1.149c-1.755-2.059-4.351-3.357-7.25-3.357-5.251 0-9.508 4.257-9.508 9.508s4.257 9.508 9.508 9.508c2.882 0 5.464-1.282 7.207-3.307l0.010-0.012-1.149-1.125c-1.46 1.739-3.634 2.836-6.065 2.836-4.364 0-7.902-3.538-7.902-7.902s3.538-7.902 7.902-7.902c2.46 0 4.658 1.124 6.108 2.888l0.011 0.014zM24.579 8.71l1.125-1.147c-2.374-2.688-5.829-4.374-9.678-4.374-7.12 0-12.893 5.772-12.893 12.893s5.772 12.892 12.893 12.892c3.777 0 7.175-1.625 9.533-4.213l0.009-0.010-1.149-1.125c-2.075 2.301-5.067 3.741-8.395 3.741-6.235 0-11.289-5.054-11.289-11.289s5.054-11.289 11.289-11.289c3.412 0 6.471 1.514 8.541 3.907l0.012 0.014zM15.954 30.396c-0.002 0-0.005 0-0.007 0-7.925 0-14.35-6.425-14.35-14.35s6.425-14.35 14.35-14.35c4.276 0 8.115 1.87 10.744 4.837l0.013 0.015 1.125-1.146c-2.927-3.266-7.159-5.311-11.868-5.311-0.002 0-0.005 0-0.007 0h0c-8.796 0-15.954 7.159-15.954 15.955 0 0.002 0 0.005 0 0.007 0 8.807 7.139 15.946 15.946 15.946 4.647 0 8.83-1.988 11.745-5.16l0.010-0.012-1.148-1.125c-2.629 2.887-6.404 4.692-10.6 4.692v0z"></path>
</svg>
