<!-- Generated by IcoMoon.io -->
<svg version="1.1" xmlns="http://www.w3.org/2000/svg" width="32" height="32" viewBox="0 0 32 32">
<path d="M27.913 5.619h-23.825c-1.388 0-2.525 1.125-2.525 2.525v3.6h1.75v-3.6c0-0.425 0.35-0.775 0.775-0.775h23.813c0.425 0 0.775 0.35 0.775 0.775v15.713c0 0.425-0.35 0.775-0.775 0.775h-5.15v1.75h5.163c1.387 0 2.525-1.125 2.525-2.525v-15.713c-0.012-1.4-1.137-2.525-2.525-2.525zM3.325 23.744v-3.238h-1.75v3.238c0 1.45 1.175 2.625 2.625 2.625h5.013v-1.75h-5.013c-0.487 0-0.875-0.387-0.875-0.875zM3.325 14.519c0-0.488 0.388-0.875 0.875-0.875h4.638v-1.75h-4.638c-1.45 0-2.625 1.175-2.625 2.625v3.613h1.75v-3.613zM19.738 23.744c0 0.488-0.387 0.875-0.875 0.875h-7.275v1.75h7.275c1.45 0 2.625-1.175 2.625-2.625v-0.975h-1.75v0.975zM16.35 23.031c0.363-0.15 0.55-0.413 0.55-0.8v-3.025c2.175-0.387 4.188-1.137 6.025-2.238 2.25-1.35 4.025-3.063 5.325-5.137 0.212-0.4 0.163-0.75-0.15-1.063-0.15-0.125-0.325-0.2-0.525-0.225s-0.387 0.025-0.538 0.125c-0.012 0.012-0.025 0.012-0.025 0.012-0.225 0.137-0.438 0.262-0.65 0.375s-0.675 0.325-1.375 0.625c-0.7 0.3-1.387 0.563-2.063 0.762-0.675 0.213-1.512 0.4-2.5 0.575-1 0.175-1.975 0.262-2.938 0.262h-0.575v-2.912c0-0.387-0.188-0.65-0.55-0.787-0.125-0.037-0.225-0.063-0.313-0.063-0.238 0-0.438 0.088-0.613 0.25l-5.95 5.925c-0.162 0.162-0.25 0.375-0.25 0.613s0.088 0.438 0.25 0.613l5.95 5.938c0.238 0.25 0.537 0.313 0.913 0.175zM15.162 18.481v1.675l-3.875-3.863 3.875-3.85v1.675c0 0.225 0.075 0.425 0.225 0.6 0.15 0.162 0.338 0.262 0.55 0.262 0.35 0.037 0.863 0.063 1.55 0.063 2.238 0 4.488-0.387 6.725-1.15-2.387 2.025-5.15 3.263-8.3 3.713-0.213 0.025-0.387 0.125-0.525 0.288s-0.225 0.35-0.225 0.587z"></path>
</svg>
