<!-- Generated by IcoMoon.io -->
<svg version="1.1" xmlns="http://www.w3.org/2000/svg" width="32" height="32" viewBox="0 0 32 32">
<path d="M2.85 21.538c0.75 1.762 1.775 3.288 3.050 4.563s2.8 2.288 4.575 3.050c1.775 0.75 3.625 1.137 5.563 1.137s3.788-0.375 5.55-1.137c1.762-0.75 3.275-1.775 4.55-3.050s2.288-2.8 3.038-4.563c0.75-1.762 1.137-3.613 1.137-5.55s-0.375-3.787-1.137-5.55c-0.75-1.762-1.762-3.275-3.038-4.55s-2.788-2.288-4.55-3.038c-1.762-0.75-3.613-1.137-5.55-1.137s-3.787 0.375-5.563 1.137c-1.775 0.75-3.3 1.775-4.575 3.038-1.288 1.275-2.3 2.788-3.050 4.55s-1.137 3.613-1.137 5.55 0.375 3.788 1.137 5.55zM5.138 9.713c1.125-1.925 2.65-3.45 4.588-4.575s4.037-1.688 6.3-1.688c2.262 0 4.35 0.563 6.275 1.688s3.45 2.65 4.575 4.575c1.125 1.925 1.675 4.013 1.675 6.275 0 1.712-0.325 3.337-0.988 4.887s-1.55 2.887-2.675 4c-1.125 1.113-2.45 2.012-4 2.675s-3.175 1-4.863 1c-2.275 0-4.375-0.563-6.3-1.688-1.938-1.125-3.463-2.65-4.588-4.575s-1.688-4.025-1.688-6.3c0-2.262 0.563-4.35 1.688-6.275zM8.325 19.575c0.238 0 0.45-0.087 0.625-0.262l7.137-6.963 6.975 6.963c0.175 0.175 0.387 0.262 0.625 0.262s0.438-0.087 0.6-0.262c0.163-0.137 0.25-0.337 0.25-0.613s-0.087-0.475-0.25-0.613l-7.55-7.563c-0.188-0.162-0.4-0.25-0.625-0.262h-0.012c-0.225 0-0.412 0.088-0.575 0.262l-7.775 7.563c-0.175 0.15-0.263 0.35-0.263 0.587s0.075 0.45 0.237 0.625c0.15 0.188 0.35 0.275 0.6 0.275z"></path>
</svg>
