<!-- Generated by IcoMoon.io -->
<svg version="1.1" xmlns="http://www.w3.org/2000/svg" width="32" height="32" viewBox="0 0 32 32">
<path d="M26.113 5.888c-1.275-1.275-2.8-2.288-4.563-3.038s-3.613-1.137-5.55-1.137-3.787 0.375-5.55 1.137c-1.762 0.75-3.275 1.775-4.55 3.038-1.288 1.275-2.3 2.788-3.050 4.55s-1.137 3.613-1.137 5.55 0.375 3.788 1.137 5.55c0.75 1.762 1.775 3.288 3.050 4.563s2.8 2.288 4.55 3.050c1.762 0.75 3.613 1.137 5.55 1.137s3.788-0.375 5.55-1.137c1.762-0.75 3.288-1.775 4.563-3.050s2.288-2.8 3.050-4.563c0.75-1.762 1.137-3.613 1.137-5.55s-0.375-3.787-1.137-5.55c-0.762-1.762-1.775-3.275-3.050-4.55zM27.563 20.875c-0.663 1.55-1.55 2.887-2.675 4s-2.462 2.012-4.012 2.675c-1.55 0.663-3.175 1-4.887 1-2.262 0-4.35-0.563-6.275-1.688s-3.45-2.65-4.575-4.575c-1.125-1.925-1.688-4.025-1.688-6.3 0-2.262 0.563-4.35 1.688-6.275s2.65-3.45 4.575-4.575c1.925-1.125 4.025-1.688 6.275-1.688 1.7 0 3.325 0.337 4.875 1s2.887 1.563 4.012 2.675 2.012 2.45 2.675 4c0.663 1.55 0.988 3.162 0.988 4.863 0.012 1.7-0.313 3.337-0.975 4.887zM24.275 12.537c-0.15-0.175-0.35-0.262-0.6-0.262-0.238 0-0.45 0.088-0.625 0.262l-6.975 6.925-7.125-6.963c-0.175-0.15-0.387-0.238-0.625-0.238s-0.45 0.088-0.625 0.262c-0.15 0.15-0.237 0.363-0.237 0.613s0.088 0.45 0.263 0.613l7.775 7.575c0.15 0.15 0.35 0.238 0.6 0.238 0.238 0 0.45-0.075 0.625-0.238l7.55-7.575c0.163-0.162 0.25-0.375 0.25-0.613 0-0.262-0.087-0.463-0.25-0.6z"></path>
</svg>
