<!-- Generated by IcoMoon.io -->
<svg version="1.1" xmlns="http://www.w3.org/2000/svg" width="32" height="32" viewBox="0 0 32 32">
<path d="M8.375 18.938c-0.213 0.4-0.162 0.75 0.15 1.063 0.15 0.125 0.325 0.2 0.525 0.225s0.387-0.025 0.537-0.125c0.012-0.012 0.025-0.012 0.025-0.012 0.225-0.137 0.438-0.262 0.65-0.375s0.675-0.325 1.375-0.625c0.7-0.3 1.387-0.563 2.063-0.762 0.675-0.212 1.512-0.4 2.5-0.575 1-0.175 1.975-0.262 2.938-0.262h0.575v2.938c0 0.387 0.188 0.65 0.55 0.788 0.125 0.038 0.225 0.063 0.313 0.063 0.238 0 0.438-0.087 0.613-0.25l5.95-5.925c0.163-0.162 0.25-0.375 0.25-0.613s-0.087-0.438-0.25-0.613l-5.95-5.938c-0.238-0.275-0.55-0.338-0.925-0.188-0.363 0.15-0.55 0.412-0.55 0.8v3.025c-2.175 0.387-4.188 1.137-6.025 2.237-2.25 1.35-4.025 3.063-5.313 5.125zM20.7 13.175c0.212-0.025 0.387-0.125 0.525-0.287s0.212-0.35 0.212-0.588v-1.675l3.875 3.863-3.875 3.85v-1.663c0-0.225-0.075-0.425-0.225-0.6-0.15-0.162-0.337-0.262-0.55-0.262-0.35-0.037-0.863-0.063-1.55-0.063-2.238 0-4.488 0.387-6.725 1.15 2.4-2.037 5.162-3.275 8.313-3.725zM28.675 23.85c0 0.425-0.35 0.775-0.775 0.775h-5.15v1.75h5.163c1.387 0 2.525-1.125 2.525-2.525v-0.8h-1.75v0.8zM27.913 5.625h-6.25v1.75h6.25c0.425 0 0.775 0.35 0.775 0.775v0.662h1.75v-0.662c-0.012-1.4-1.137-2.525-2.525-2.525zM9.787 5.625h9.5v1.75h-9.5v-1.75zM3.325 8.15c0-0.425 0.35-0.775 0.775-0.775h3.313v-1.75h-3.325c-1.388 0-2.525 1.125-2.525 2.525v3.6h1.75v-3.6zM28.675 11.188h1.75v9.5h-1.75v-9.5zM19.738 23.75c0 0.488-0.387 0.875-0.875 0.875h-14.662c-0.487 0-0.875-0.387-0.875-0.875v-9.225c0-0.488 0.388-0.875 0.875-0.875h8.45v-1.75h-8.45c-1.45 0-2.625 1.175-2.625 2.625v9.225c0 1.45 1.175 2.625 2.625 2.625h14.662c1.45 0 2.625-1.175 2.625-2.625v-0.975h-1.75v0.975z"></path>
</svg>
