<!-- Generated by IcoMoon.io -->
<svg version="1.1" xmlns="http://www.w3.org/2000/svg" width="32" height="32" viewBox="0 0 32 32">
<path d="M29.874 6.452c-0.307-0.307-0.723-0.504-1.185-0.53l-0.005-0v-0.032h-25.372v0.032c-0.466 0.026-0.881 0.224-1.188 0.53l0-0c-0.311 0.294-0.514 0.699-0.545 1.152l-0 0.005v16.609c0 0.003-0 0.006-0 0.009 0 1.040 0.843 1.883 1.883 1.883 0.004 0 0.007 0 0.011-0h25.057c0.003 0 0.006 0 0.010 0 1.040 0 1.883-0.843 1.883-1.883 0-0.003 0-0.006-0-0.009v0-16.609c-0.032-0.458-0.236-0.864-0.547-1.157l-0.001-0.001zM28.686 24.219c-0.005 0.041-0.025 0.077-0.055 0.101l-0 0c-0.029 0.033-0.071 0.054-0.117 0.055h-25.030c-0.047-0.001-0.089-0.022-0.117-0.055l-0-0c-0.030-0.025-0.050-0.060-0.055-0.101l-0-0.001v-16.594h25.375zM15.318 20.851h10.798c0.202 0 0.366 0.164 0.366 0.366v0.726c0 0.202-0.164 0.366-0.366 0.366h-10.797c-0.202 0-0.366-0.164-0.366-0.366v-0.726c0-0.202 0.164-0.366 0.366-0.366zM6.39 22.455c-0.482-0.001-0.873-0.392-0.873-0.875 0-0.288 0.139-0.544 0.354-0.703l0.002-0.002 6.56-4.875-6.56-4.875c-0.2-0.162-0.328-0.407-0.328-0.683 0-0.483 0.392-0.875 0.875-0.875 0.183 0 0.353 0.056 0.493 0.152l-0.003-0.002 7.5 5.58c0.215 0.161 0.353 0.416 0.353 0.703s-0.138 0.541-0.351 0.701l-0.002 0.002-7.5 5.58c-0.144 0.108-0.325 0.172-0.521 0.172h-0z"></path>
</svg>
