<!-- Generated by IcoMoon.io -->
<svg version="1.1" xmlns="http://www.w3.org/2000/svg" width="32" height="32" viewBox="0 0 32 32">
<path d="M16 0c-8.821 0-16 7.179-16 16s7.179 16 16 16 16-7.179 16-16-7.179-16-16-16zM16 27c-3.295 0-6.266-1.409-8.344-3.656-1.716-1.946-2.766-4.492-2.781-7.276v-0.068c0-6.135 4.991-11.125 11.125-11.125s11.125 4.991 11.125 11.125c0 0.66-0.080 1.434-0.192 2.057-0.339 1.813-1.104 3.453-2.183 4.824-2.087 2.515-5.235 4.119-8.751 4.119zM20.016 30.66c-5.786-0.32-10.049-2.357-12.68-6.069-0.388-0.546-0.718-1.099-1-1.646 2.213 2.919 5.718 4.805 9.662 4.805 6.693 0 12.119-5.426 12.119-12.119 0-0.217-0.006-0.434-0.017-0.649-0.065-4.27-1.955-7.56-4.128-9.936-1.506-1.749-3.2-2.986-4.497-3.779 2.733 0.632 5.24 2.015 7.273 4.048 2.863 2.863 4.439 6.669 4.439 10.718s-1.576 7.855-4.439 10.718c-1.898 1.898-4.21 3.229-6.731 3.913z"></path>
</svg>
