<!-- Generated by IcoMoon.io -->
<svg version="1.1" xmlns="http://www.w3.org/2000/svg" width="32" height="32" viewBox="0 0 32 32">
<path d="M16.342 27.551v-3.714c4.361 0 7.896-3.535 7.896-7.896s-3.535-7.896-7.896-7.896v0-3.714c6.412 0 11.61 5.198 11.61 11.61s-5.198 11.61-11.61 11.61v0z"></path>
<path d="M11.387 29.846c-0.099-0.181-0.157-0.397-0.157-0.627 0-0.509 0.286-0.952 0.707-1.175l0.007-0.003 0.074-0.037c1.85 0 1.85-5.541-3.075-4.925 0-5.541-6.15-4.308-6.15-1.85-0.356 0.697-0.565 1.52-0.565 2.392 0 0.021 0 0.041 0 0.062l-0-0.003c0.104 1.084 3.996 4.917 3.996 4.917l4.308 2.162c0.55 0.007 0.854-0.914 0.854-0.914z"></path>
<path d="M9.545 3.996c3.075 0 2.459 3.714 0.617 3.714v7.391h-4.308v1.85c0 1.85-3.075 1.85-3.075 0v-9.954l4.457-4.383z"></path>
<path d="M16 0.617c8.496 0 15.383 6.887 15.383 15.383s-6.887 15.383-15.383 15.383c-8.496 0-15.383-6.887-15.383-15.383v0c0-8.496 6.887-15.383 15.383-15.383v0zM16 0c-8.837 0-16 7.163-16 16s7.163 16 16 16c8.837 0 16-7.163 16-16v0 0c0-8.837-7.163-16-16-16v0z"></path>
<path d="M15.391 0.617h0.617v31.079h-0.617v-31.079z"></path>
<path d="M4.026 19.848c-0.002 0-0.005 0-0.008 0-0.163 0-0.296-0.128-0.304-0.289l-0-0.001v-1.27c0.024-0.15 0.153-0.264 0.308-0.264s0.284 0.114 0.308 0.262l0 0.002v1.27c-0.008 0.162-0.141 0.29-0.304 0.29-0 0-0 0-0 0h0z"></path>
<path d="M8.617 17.233c0 0.34-0.276 0.617-0.617 0.617s-0.617-0.276-0.617-0.617c0-0.34 0.276-0.617 0.617-0.617s0.617 0.276 0.617 0.617z"></path>
<path d="M14.158 4.613c-0.817 0-1.82-1.107-2.139-2.058-0.009-0.029-0.015-0.062-0.015-0.097 0-0.142 0.093-0.262 0.221-0.304l0.002-0.001c0.027-0.008 0.058-0.013 0.090-0.013 0.141 0 0.261 0.092 0.303 0.219l0.001 0.002c0.282 0.839 1.114 1.634 1.552 1.634 0.15 0.024 0.264 0.153 0.264 0.308 0 0.017-0.001 0.034-0.004 0.050l0-0.002c-0.022 0.134-0.126 0.238-0.258 0.26l-0.002 0z"></path>
<path d="M16 31.079h-0.305v-30.158h0.305c8.183 0.187 14.744 6.865 14.744 15.075s-6.562 14.888-14.727 15.075l-0.017 0zM16.342 1.545v28.91c7.845-0.183 14.135-6.587 14.135-14.459s-6.29-14.275-14.118-14.458l-0.017-0z"></path>
<path d="M16 23.027v0.052h-0.305v-14.165h0.305zM16.334 9.545v12.91z"></path>
<path d="M15.851 12.019c0.122-0.014 0.263-0.022 0.406-0.022 2.051 0 3.714 1.663 3.714 3.714s-1.663 3.714-3.714 3.714c-0.143 0-0.284-0.008-0.423-0.024l0.017 0.002z"></path>
<path d="M16 19.996h-0.305v-8h0.305c0.044-0.002 0.096-0.003 0.148-0.003 2.211 0 4.004 1.793 4.004 4.004 0 2.143-1.684 3.893-3.8 3.999l-0.009 0zM16.342 12.628v6.745c1.729-0.167 3.070-1.613 3.070-3.372s-1.341-3.205-3.056-3.371l-0.014-0.001z"></path>
</svg>
