<!-- Generated by IcoMoon.io -->
<svg version="1.1" xmlns="http://www.w3.org/2000/svg" width="32" height="32" viewBox="0 0 32 32">
<path d="M11.42 16.002c0-3.646 0-7.291 0.001-10.938 0-0.17 0.005-0.341 0.033-0.509 0.061-0.366 0.371-0.627 0.731-0.636 0.373-0.009 0.728 0.251 0.755 0.636 0.044 0.598 0.035 1.2 0.035 1.8 0 3.796-0.005 7.591-0.005 11.387 0 3.115 0.005 6.23 0.006 9.345 0 0.544-0.164 0.816-0.559 0.954s-0.851-0.096-0.944-0.514c-0.040-0.181-0.045-0.372-0.045-0.56-0.002-3.656-0.002-7.311-0.002-10.967-0.002 0-0.004 0-0.006 0z"></path>
<path d="M20.583 16.017c0 3.054 0 6.107-0.003 9.161 0 0.149-0.016 0.301-0.054 0.445-0.082 0.305-0.407 0.534-0.725 0.53-0.334-0.003-0.661-0.246-0.723-0.57-0.038-0.204-0.036-0.418-0.036-0.626-0.004-2.964-0.008-5.928-0.008-8.89 0-3.084 0-6.168 0.015-9.251 0-0.226 0.070-0.479 0.186-0.673 0.149-0.246 0.426-0.34 0.714-0.27 0.284 0.069 0.52 0.23 0.587 0.539 0.038 0.174 0.049 0.356 0.050 0.535 0.003 3.024 0.003 6.047 0.003 9.071h-0.006z"></path>
<path d="M15.223 16.004c0-2.192 0-4.384 0.001-6.576 0-0.169 0.008-0.341 0.043-0.506 0.071-0.339 0.399-0.574 0.752-0.566 0.352 0.008 0.669 0.231 0.707 0.575 0.049 0.435 0.050 0.877 0.050 1.317 0 3.994-0.003 7.988-0.005 11.981 0 0.23 0.016 0.461-0.006 0.69-0.044 0.448-0.354 0.731-0.766 0.729s-0.73-0.291-0.758-0.738c-0.027-0.449-0.019-0.9-0.019-1.351-0.001-1.851 0-3.704 0-5.555z"></path>
<path d="M9.153 16.007c0 2.233 0 4.464 0 6.696 0 0.646-0.356 1.019-0.885 0.931-0.366-0.060-0.611-0.323-0.647-0.721-0.022-0.239-0.020-0.48-0.020-0.72 0.003-3.924 0.005-7.848 0.009-11.77 0-0.44-0.019-0.881 0.004-1.321 0.021-0.411 0.286-0.681 0.665-0.739 0.334-0.051 0.662 0.106 0.787 0.419 0.064 0.161 0.080 0.351 0.080 0.527 0.005 2.232 0.004 4.464 0.004 6.696 0.001 0 0.004 0 0.005 0z"></path>
<path d="M26.655 16.033c0-1.971 0.001-3.942-0.001-5.914 0-0.36 0.064-0.685 0.413-0.869 0.531-0.281 1.114 0.084 1.135 0.716 0.015 0.45 0.009 0.9 0.009 1.351 0 3.512 0.003 7.025-0.005 10.538 0 0.204-0.040 0.424-0.125 0.606-0.131 0.282-0.509 0.438-0.788 0.376-0.366-0.080-0.61-0.332-0.621-0.709-0.020-0.65-0.015-1.301-0.016-1.951-0.001-1.381 0-2.762 0-4.142z"></path>
<path d="M1.537 16c0 1.361 0 2.721 0 4.082 0 0.551-0.281 0.879-0.759 0.886-0.465 0.006-0.786-0.329-0.787-0.869-0.007-2.271-0.003-4.543-0.003-6.814 0-0.49-0.012-0.981 0-1.471 0.011-0.402 0.249-0.68 0.605-0.758 0.364-0.079 0.706 0.064 0.85 0.398 0.069 0.159 0.085 0.349 0.085 0.525 0.006 1.341 0.004 2.681 0.004 4.023h0.005z"></path>
<path d="M22.849 16.002c0-1.37-0.005-2.741 0.003-4.111 0.004-0.606 0.394-0.945 0.936-0.836 0.346 0.069 0.578 0.351 0.599 0.762 0.017 0.34 0.015 0.68 0.015 1.020 0 2.411-0.003 4.821-0.005 7.232 0 0.471-0.212 0.794-0.575 0.875-0.379 0.086-0.753-0.059-0.88-0.395-0.079-0.207-0.089-0.449-0.090-0.675-0.008-1.29-0.004-2.581-0.004-3.871z"></path>
<path d="M5.335 16.014c0 0.81 0.010 1.62-0.004 2.43-0.006 0.384-0.256 0.661-0.598 0.727-0.345 0.067-0.708-0.105-0.846-0.425-0.055-0.125-0.091-0.27-0.091-0.405-0.005-1.57-0.006-3.14 0.001-4.711 0.002-0.471 0.323-0.803 0.75-0.814 0.449-0.011 0.776 0.297 0.787 0.796 0.018 0.8 0.005 1.6 0.005 2.4-0.001 0-0.003 0-0.004 0z"></path>
<path d="M30.464 15.97c0-0.47-0.005-0.94 0.001-1.411 0.008-0.529 0.301-0.852 0.76-0.854 0.454 0 0.78 0.334 0.785 0.844 0.010 0.98 0.010 1.961 0 2.941-0.004 0.474-0.321 0.797-0.754 0.806-0.449 0.009-0.764-0.281-0.782-0.766-0.020-0.52-0.005-1.040-0.005-1.56-0.003 0-0.005 0-0.008 0z"></path>
</svg>
