<!-- Generated by IcoMoon.io -->
<svg version="1.1" xmlns="http://www.w3.org/2000/svg" width="32" height="32" viewBox="0 0 32 32">
<path d="M17.7 29.55c0.462-0.475 0.7-1.038 0.7-1.7h-4.8c0 0.65 0.238 1.225 0.713 1.7s1.037 0.712 1.7 0.712c0.663 0 1.225-0.238 1.688-0.712zM27.863 20.313c-0.413-1.9-1-4.575-1.762-8.012-0.137-1.025-0.387-1.95-0.762-2.8s-0.8-1.55-1.262-2.1c-0.462-0.563-1-1.050-1.6-1.487s-1.15-0.775-1.675-1.013-1.050-0.438-1.613-0.6c-0.15-0.737-0.538-1.35-1.137-1.837s-1.288-0.725-2.075-0.725c-0.775 0-1.45 0.238-2.050 0.725s-0.975 1.1-1.125 1.837c-0.563 0.162-1.1 0.362-1.613 0.6s-1.075 0.575-1.675 1.013c-0.6 0.438-1.125 0.938-1.6 1.487-0.463 0.563-0.888 1.262-1.263 2.1s-0.625 1.775-0.763 2.8c-0.463 3.512-0.975 6.2-1.537 8.063s-1.413 3.625-2.525 5.275c-0.113 0.15-0.175 0.313-0.175 0.488 0 0.137 0.038 0.275 0.113 0.4 0.163 0.3 0.425 0.45 0.762 0.45h26.9c0.35 0 0.6-0.15 0.762-0.45 0.063-0.15 0.1-0.288 0.1-0.425 0-0.163-0.050-0.325-0.15-0.475-1.087-1.637-1.85-3.413-2.275-5.313zM4.125 25.262c0.938-1.613 1.65-3.375 2.15-5.262 0.5-1.9 0.95-4.387 1.362-7.475 0.112-0.863 0.325-1.65 0.638-2.362s0.675-1.3 1.075-1.762c0.4-0.475 0.863-0.888 1.4-1.237s1.037-0.638 1.525-0.838c0.488-0.2 1-0.362 1.55-0.487 0.2-0.037 0.35-0.138 0.475-0.3 0.113-0.15 0.175-0.338 0.175-0.525v-0.025c0.025-0.412 0.175-0.775 0.475-1.063 0.287-0.288 0.65-0.438 1.063-0.438 0.425 0 0.788 0.15 1.087 0.438s0.45 0.65 0.45 1.063v0.025c0 0.2 0.063 0.375 0.188 0.525s0.288 0.25 0.488 0.3c0.538 0.125 1.063 0.287 1.55 0.487s1 0.475 1.525 0.838c0.525 0.362 0.988 0.775 1.387 1.237 0.4 0.475 0.762 1.063 1.075 1.762 0.313 0.713 0.525 1.5 0.637 2.363 0.625 3.025 1.137 5.5 1.538 7.425 0.4 1.913 1.063 3.688 2 5.313h-23.813z"></path>
</svg>
