<!-- Generated by IcoMoon.io -->
<svg version="1.1" xmlns="http://www.w3.org/2000/svg" width="26" height="32" viewBox="0 0 26 32">
<path d="M25.903 19.063c-2.49 7.156-10.304 10.934-17.46 8.444-3.95-1.374-7.070-4.465-8.444-8.386 8.386 8.644 22.469 4.723 25.903-0.057z"></path>
<path d="M25.903 12.021c-2.49-7.156-10.304-10.934-17.46-8.444-3.95 1.374-7.070 4.465-8.444 8.415 8.386-8.644 22.469-4.751 25.903 0.029z"></path>
<path d="M2.948 4.322c0 0.743-0.602 1.345-1.345 1.345s-1.345-0.602-1.345-1.345c0-0.743 0.602-1.345 1.345-1.345s1.345 0.602 1.345 1.345z"></path>
<path d="M23.986 1.803c0 0.996-0.807 1.803-1.803 1.803s-1.803-0.807-1.803-1.803c0-0.996 0.807-1.803 1.803-1.803s1.803 0.807 1.803 1.803z"></path>
<path d="M5.982 29.796c0 1.217-0.987 2.204-2.204 2.204s-2.204-0.987-2.204-2.204c0-1.217 0.987-2.204 2.204-2.204s2.204 0.987 2.204 2.204z"></path>
</svg>
