<!-- Generated by IcoMoon.io -->
<svg version="1.1" xmlns="http://www.w3.org/2000/svg" width="35" height="32" viewBox="0 0 35 32">
<path d="M35.132 26.494c-0.883-2.222-1.808-4.43-2.649-6.665-1.587-4.264-3.091-8.555-4.664-12.819-0.704-1.904-1.504-3.781-2.636-5.492-0.276-0.428-0.635-0.814-1.007-1.159-0.4-0.386-0.911-0.483-1.38-0.138-0.414 0.304-0.842 0.621-1.145 1.021-0.58 0.773-1.063 1.615-1.601 2.415-0.731 1.090-1.435 2.222-2.249 3.257-0.911 1.173-2.056 2.084-3.505 2.498-0.787 0.221-1.449 0.593-1.987 1.173-0.842 0.911-1.628 1.877-2.442 2.801-0.138 0.152-0.317 0.304-0.511 0.386-2.636 1.104-5.285 2.194-7.934 3.284-0.455 0.193-0.925 0.4-1.421 0.607 0.083 0.069 0.124 0.11 0.179 0.152 2.484 1.752 4.968 3.491 7.452 5.23 0.097 0.069 0.29 0.069 0.428 0.041 0.483-0.083 0.966-0.276 1.435-0.262 0.828 0 1.421 0.524 1.849 1.173 0.428 0.635 0.842 1.297 1.132 2.001 0.787 1.877 1.504 3.781 2.222 5.685 0.124 0.304 0.248 0.359 0.552 0.304 1.504-0.304 2.732-1.104 3.878-2.084 1.338-1.159 2.442-2.525 3.588-3.864 0.938-1.090 1.904-2.153 2.912-3.174 1.214-1.214 3.408-1.132 4.554-0.317 0.469 0.331 0.911 0.704 1.325 1.090 1.049 1.021 2.084 2.056 3.312 2.856 0.11 0.069 0.221 0.138 0.4 0.248-0.041-0.152-0.069-0.207-0.083-0.248zM11.84 20.133c-0.069 0.069-0.179 0.11-0.262 0.152-1.145 0.58-2.291 1.173-3.45 1.739-0.11 0.055-0.304 0.055-0.386 0-1.932-1.352-3.85-2.705-5.782-4.057-0.028-0.014-0.041-0.055-0.097-0.097 0.11-0.055 0.207-0.11 0.317-0.152 2.511-1.035 5.037-2.070 7.548-3.119 0.207-0.083 0.359-0.097 0.552 0.055 1.242 0.952 2.498 1.877 3.836 2.898-0.787 0.883-1.532 1.739-2.277 2.58zM14.586 16.752c-1.325-0.994-2.608-1.959-3.919-2.939 0.897-1.118 1.725-2.235 2.843-3.091 0.193-0.152 0.428-0.29 0.662-0.345 1.739-0.442 3.105-1.449 4.25-2.801 0.511-0.607 0.966-1.242 1.463-1.863-1.477 3.822-2.994 7.589-5.299 11.039z"></path>
</svg>
