<!-- Generated by IcoMoon.io -->
<svg version="1.1" xmlns="http://www.w3.org/2000/svg" width="32" height="32" viewBox="0 0 32 32">
<path d="M27 9.25v-1.125h5v-0.875h-5v-1.25h-1.125v-5.625h-0.875v5.625h-1.25v1.25h-5.75v-1.25h-1.125v-5.625h-1v5.625h-1.125v1.25h-6.375v-1.375h-1.25v-5.5h-0.875v5.5h-1.125v1.375h-5.125v0.875h5.125v1h1.125v6h-1.125v1h-5.125v0.875h5.125v1.375h1.125v5.5h-1.125v1.125h-5.125v0.875h5.125v1.25h1.125v4.5h1v-4.5h1.125v-1.25h6.375v1.25h1.25v4.5h0.875v-4.5h1.125v-1.25h5.75v1.25h1.125v4.5h1v-4.5h1.125v-1.25h5v-0.875h-5v-1h-1.125v-5.75h1.125v-1.25h5v-0.875h-5v-1.125h-1.125v-5.75h1.125zM7.125 9.125h1.25v-1h6.375v1.125h1.125v5.75h-1.125v1.125h-6.5v-1h-1.125v-6zM8.375 25v-1.125h-1.125v-5.5h1v-1.375h6.5v1.125h1.125v5.75h-1.125v1.125h-6.375zM24.875 24h-1.125v1h-5.75v-1.125h-1.125v-5.75h1.125v-1.125h5.75v1.25h1.125v5.75zM24.875 15h-1.125v1.125h-5.75v-1.125h-1.125v-5.75h1.125v-1.125h5.75v1.125h1.125v5.75z"></path>
</svg>
