<!-- Generated by IcoMoon.io -->
<svg version="1.1" xmlns="http://www.w3.org/2000/svg" width="32" height="32" viewBox="0 0 32 32">
<path d="M0 0v32h32v-32h-32zM13.511 13.156c0.533-1.156 1.2-2.044 1.956-2.578 0.8-0.533 1.689-0.8 2.622-0.8 1.067 0 1.956 0.311 2.622 0.933s1.156 1.556 1.378 2.8l-1.822 0.267c-0.311-1.333-1.067-2-2.178-2-0.622 0-1.156 0.178-1.689 0.578-0.533 0.356-0.933 0.978-1.289 1.822s-0.444 1.733-0.444 2.844c0 1.022 0.178 1.733 0.578 2.222 0.356 0.444 0.933 0.711 1.644 0.711 0.4 0 0.8-0.044 1.156-0.178 0.489-0.133 0.933-0.356 1.289-0.578l0.311-1.733h-2.444l0.356-1.956h4.222l-0.889 5.067c-0.533 0.444-1.156 0.756-1.911 1.022s-1.467 0.4-2.222 0.4c-1.289 0-2.222-0.4-2.889-1.156-0.756-0.889-1.156-2.178-1.156-3.778 0.044-1.422 0.311-2.711 0.8-3.911zM4.4 10h1.867l2.622 7.867 1.333-7.867h1.867l-2.044 11.778h-1.867l-2.622-7.911-1.289 7.911h-1.867l2-11.778zM29.556 21.778h-6.933l2-11.778h2l-1.689 9.822h4.933l-0.311 1.956z"></path>
</svg>
