<!-- Generated by IcoMoon.io -->
<svg version="1.1" xmlns="http://www.w3.org/2000/svg" width="32" height="32" viewBox="0 0 32 32">
<path d="M29.4 19.849c-3.575-2.575-6.212-4.9-8-6.6-0.688-0.662-3.087-2.7-6.325-4.813-2.35-1.537-4.95-1.888-7.638-0.675 2.212-0.063 4.362 0.288 6.1 1.675 3.012 2.412 4.863 4.037 7.088 6.162 2.113 2.025 5.55 4.463 11.275 5.9 0.025-0.113 0.038-0.225 0.063-0.337-0.863-0.438-1.712-0.875-2.563-1.313z"></path>
<path d="M30.55 22.212c-4.775 1.262-9.537 1.125-14.338 0.125-3.625-0.762-7.275-1.525-10.988-0.462 0.075 0.15 0.125 0.387 0.213 0.413 2.925 0.525 5.85 1.075 8.787 1.538 2.85 0.45 5.7 1.050 8.563 1.137 3.262 0.1 6.3-1.025 9.025-2.887-0.425-0.025-0.85 0.025-1.262 0.137z"></path>
<path d="M17.675 19.862c1.113 1.063 2.512 1.725 4 1.413-1.1-0.95-2.325-1.863-3.363-2.95-0.988-1.038-1.75-2.3-2.675-3.4-1.175-1.4-2.338-2.825-3.65-4.075-1.287-1.213-2.85-1.725-4.6-0.7 1.75 0.075 2.887 1.075 3.863 2.325 0.625 0.8 1.175 1.65 1.85 2.412 1.488 1.688 2.95 3.412 4.575 4.975z"></path>
<path d="M4.862 16.262c1.425 0.238 2.65-0.475 3.087-1.8 0.463-1.4-0.013-2.45-1.713-3.313 0.263 0.45 0.487 0.662 0.463 0.85-0.075 0.713 0 1.625-0.412 2.037-0.3 0.3-1.375 0.137-1.912-0.162-1.1-0.6-1.288-1.9-0.538-3.175 0.462-0.787 1.125-1.463 1.863-2.387-0.638 0.188-1.063 0.25-1.45 0.425-1.675 0.738-2.837 2.65-2.65 4.287 0.2 1.637 1.525 2.95 3.263 3.237z"></path>
<path d="M5.225 21.849s-0.013 0.012-0.025 0.012v0c0.013 0 0.025 0 0.025-0.012q0.013 0 0 0v0z"></path>
<path d="M7.9 19.762c1.012-1.125 1-2.3 0.25-3.325-1.475 3.538-4.8 3.85-8.113 4.5 1.688 1.45 3.438 1.188 5.188 0.925 0.9-0.688 1.925-1.275 2.675-2.1z"></path>
<path d="M9.8 14.374c-0.1 0.162-0.2 0.325-0.287 0.488 0.675 1.425 1.238 2.9 2.050 4.238 1.162 1.925 2.438 2.563 3.8 2.238-0.525-0.725-1.088-1.438-1.563-2.2-0.738-1.175-1.35-2.462-2.175-3.563-0.425-0.537-1.213-0.8-1.825-1.2z"></path>
</svg>
