<!-- Generated by IcoMoon.io -->
<svg version="1.1" xmlns="http://www.w3.org/2000/svg" width="32" height="32" viewBox="0 0 32 32">
<path d="M12.384 7.468c0 0.661-0.536 1.198-1.197 1.198s-1.197-0.536-1.197-1.197c0-0.661 0.536-1.197 1.197-1.197s1.197 0.536 1.197 1.197z"></path>
<path d="M9.989 11.809c0 0.414-0.335 0.749-0.749 0.749s-0.749-0.335-0.749-0.749c0-0.414 0.335-0.749 0.749-0.749s0.749 0.335 0.749 0.749z"></path>
<path d="M22.863 8.066c0 0.661-0.536 1.197-1.198 1.197s-1.198-0.536-1.198-1.197c0-0.661 0.536-1.197 1.198-1.197s1.198 0.536 1.198 1.197z"></path>
<path d="M25.258 12.557c0 0.661-0.536 1.197-1.198 1.197s-1.198-0.536-1.198-1.197c0-0.661 0.536-1.197 1.198-1.197s1.198 0.536 1.198 1.197z"></path>
<path d="M21.665 17.198c0 0.414-0.335 0.749-0.749 0.749s-0.749-0.335-0.749-0.749c0-0.414 0.335-0.749 0.749-0.749s0.749 0.335 0.749 0.749z"></path>
<path d="M29.15 16.449c0 0.661-0.536 1.198-1.198 1.198s-1.198-0.536-1.198-1.198c0-0.661 0.536-1.197 1.198-1.197s1.198 0.536 1.198 1.197z"></path>
<path d="M25.558 22.137c0 0.661-0.536 1.198-1.198 1.198s-1.198-0.536-1.198-1.198c0-0.661 0.536-1.198 1.198-1.198s1.198 0.536 1.198 1.198z"></path>
<path d="M20.468 24.981c0 0.414-0.335 0.749-0.749 0.749s-0.749-0.335-0.749-0.749c0-0.414 0.335-0.749 0.749-0.749s0.749 0.335 0.749 0.749z"></path>
<path d="M16.276 23.185c0 0.414-0.335 0.749-0.749 0.749s-0.749-0.335-0.749-0.749c0-0.414 0.335-0.749 0.749-0.749s0.749 0.335 0.749 0.749z"></path>
<path d="M6.396 21.389c0 0.414-0.335 0.749-0.749 0.749s-0.749-0.335-0.749-0.749c0-0.414 0.335-0.749 0.749-0.749s0.749 0.335 0.749 0.749z"></path>
<path d="M10.588 23.335c0 0.661-0.536 1.198-1.197 1.198s-1.197-0.536-1.197-1.198c0-0.661 0.536-1.198 1.197-1.198s1.197 0.536 1.197 1.198z"></path>
<path d="M6.995 16.449c0 0.661-0.536 1.198-1.197 1.198s-1.197-0.536-1.197-1.198c0-0.661 0.536-1.197 1.197-1.197s1.197 0.536 1.197 1.197z"></path>
<path d="M5.518 26.679l-4.204-2.165v-5.255c0-0.45 0.365-0.816 0.816-0.816v0c0.45 0 0.816 0.365 0.816 0.816v4.261l3.319 1.71c0.4 0.206 0.558 0.699 0.351 1.099v0c-0.206 0.4-0.699 0.558-1.099 0.351z"></path>
<path d="M20.402 12.732v0c-0.209-0.399-0.703-0.553-1.101-0.344l-3.313 1.738-3.519-1.76c-0.402-0.201-0.893-0.039-1.094 0.365v0c-0.201 0.402-0.037 0.893 0.365 1.095l3.441 1.721v4.119c0 0.45 0.365 0.816 0.816 0.816v0c0.45 0 0.816-0.365 0.816-0.816v-4.129l3.246-1.703c0.399-0.209 0.552-0.703 0.344-1.101z"></path>
<path d="M6.298 9.318l-2.439-1.349 2.409-1.246c0.4-0.207 0.556-0.699 0.35-1.1v0c-0.207-0.4-0.699-0.556-1.099-0.35l-4.205 2.175v5.385c0 0.45 0.365 0.816 0.816 0.816v0c0.45 0 0.816-0.365 0.816-0.816v-3.505s2.563 1.418 2.563 1.418c0.394 0.217 0.89 0.075 1.109-0.319v0c0.218-0.394 0.075-0.89-0.319-1.109z"></path>
<path d="M25.593 9.244l2.517-1.313-2.457-1.146c-0.409-0.19-0.585-0.676-0.395-1.084v0c0.19-0.409 0.676-0.585 1.084-0.395l4.289 2-0.050 5.38c0.019 0.45-0.331 0.83-0.781 0.849v0c-0.45 0.019-0.83-0.331-0.849-0.781l0.128-3.501-2.637 1.385c-0.385 0.234-0.886 0.111-1.121-0.273v0c-0.234-0.385-0.111-0.886 0.273-1.121z"></path>
<path d="M20.233 2.196l-4.179-2.214-4.315 2.321c-0.37 0.257-0.461 0.765-0.204 1.135v0c0.258 0.37 0.765 0.461 1.135 0.204l3.498-1.754 3.299 1.749c0.398 0.211 0.891 0.059 1.102-0.339v0c0.211-0.397 0.059-0.891-0.339-1.103z"></path>
<path d="M30.62 19.221l0.066 5.136-4.637 2.473c-0.398 0.212-0.891 0.061-1.104-0.336v0c-0.212-0.398-0.061-0.891 0.336-1.104l3.76-2.004-0.052-4.141c-0.006-0.45 0.354-0.821 0.804-0.828v0c0.45-0.006 0.821 0.354 0.828 0.804z"></path>
<path d="M15.123 26.348l0.011 3.195-2.535-1.087c-0.376-0.249-0.883-0.145-1.13 0.231v0c-0.249 0.376-0.145 0.883 0.231 1.13l4.22 2.201 4.294-2.218c0.394-0.22 0.534-0.716 0.315-1.11v0c-0.22-0.394-0.716-0.534-1.11-0.315l-2.652 1.301-0.011-3.336c-0.001-0.45-0.369-0.814-0.819-0.813v0c-0.45 0.001-0.814 0.369-0.813 0.819z"></path>
</svg>
