<!-- Generated by IcoMoon.io -->
<svg version="1.1" xmlns="http://www.w3.org/2000/svg" width="33" height="32" viewBox="0 0 33 32">
<path d="M19.557 25.098c-1.016 0.345-2.071 0.518-3.125 0.537-5.407 0-9.817-4.525-9.817-10.085s4.391-10.085 9.797-10.085 9.797 4.525 9.797 10.085c0 1.15-0.192 2.301-0.556 3.374l4.793 4.64c1.553-2.397 2.377-5.196 2.397-8.053 0-8.57-7.343-15.511-16.412-15.511s-16.431 6.941-16.431 15.492 7.362 15.511 16.431 15.511c2.588 0 5.138-0.575 7.478-1.706l-4.352-4.199z"></path>
<path d="M18.042 17.467h4.755l-4.046-3.931h-4.851v4.736l4.141 4.026z"></path>
<path d="M19.94 24.12l8.129 7.88h4.793v-4.793l-8.091-7.823h-4.832z"></path>
</svg>
