<!-- Generated by IcoMoon.io -->
<svg version="1.1" xmlns="http://www.w3.org/2000/svg" width="40" height="32" viewBox="0 0 40 32">
<path d="M24.137 0.132c-0.002 0-0.004 0-0.006 0-0.925 0-1.832 0.081-2.713 0.236l0.093-0.014c1.282 0.369 2.395 0.836 3.437 1.414l-0.083-0.042c7.391 0.41 13.229 6.503 13.229 13.96 0 6.911-5.015 12.651-11.604 13.779l-0.083 0.012c-0.916 0.649-1.962 1.229-3.069 1.692l-0.108 0.040c0.311 0.017 0.606 0.026 0.912 0.026 0.046 0 0.101 0.001 0.155 0.001 8.589 0 15.553-6.963 15.553-15.553s-6.963-15.553-15.553-15.553c-0.055 0-0.109 0-0.164 0.001l0.008-0z"></path>
<path d="M15.868 32.023c-8.806-0.001-15.944-7.14-15.944-15.946s7.139-15.946 15.946-15.946 15.946 7.139 15.946 15.946v0c-0.011 8.803-7.144 15.936-15.946 15.946h-0.001zM15.868 1.707c-7.936 0.001-14.369 6.434-14.369 14.37s6.434 14.37 14.37 14.37 14.371-6.434 14.371-14.37v0c-0.011-7.933-6.439-14.36-14.371-14.369h-0.001z"></path>
<path d="M9.766 23.756h-3.15v-2.363h3.15c3.573 0 4.85-5.869 4.937-6.291 0.099-0.696 1.297-8.277 6.088-8.277h2.355v2.361h-2.361c-2.361 0-3.529 4.645-3.751 6.271l-0.011 0.062c-0.057 0.336-1.619 8.236-7.256 8.236z"></path>
</svg>
