<!-- Generated by IcoMoon.io -->
<svg version="1.1" xmlns="http://www.w3.org/2000/svg" width="32" height="32" viewBox="0 0 32 32">
<path d="M32 2.813h-32l16 26.375 16-26.375zM5.541 10.713c0.189-1.054 0.576-2.072 1.17-2.964 0.724-1.125 1.739-2.063 2.926-2.689 0.588-0.327 1.221-0.549 1.87-0.723 0.681-0.155 1.389-0.202 2.086-0.147 1.395 0.135 2.727 0.725 3.727 1.664 1.008 0.93 1.67 2.192 1.876 3.494 0.225 1.356-0.163 2.755-0.961 3.738-0.79 0.994-1.984 1.575-3.111 1.564 2.015-1.061 2.656-3.285 1.991-4.787-0.63-1.64-2.186-2.668-3.741-2.725-0.389-0.015-0.776 0.021-1.155 0.12-0.4 0.114-0.805 0.245-1.168 0.452-0.741 0.386-1.377 0.97-1.832 1.678-0.935 1.431-1.081 3.206-0.408 4.879 0.633 1.679 1.999 3.044 3.662 3.785 0.834 0.367 1.748 0.569 2.67 0.578 0.921 0.016 1.841-0.181 2.801-0.495 1.904-0.649 3.756-1.729 5.54-2.893 0.131-0.088 0.261-0.18 0.391-0.27l-7.876 12.985-10.46-17.242z"></path>
</svg>
