<!-- Generated by IcoMoon.io -->
<svg version="1.1" xmlns="http://www.w3.org/2000/svg" width="32" height="32" viewBox="0 0 32 32">
<path d="M26.789 20.598c-0.017 0.021-0.034 0.043-0.051 0.064l-0.686 3.044-1.285-0.913c-3.483 3.355-7.2 4.95-10.831 6.038l-0.456 0.358h12.74c0.816-0.438 1.609-0.894 2.35-1.39l-0.681-0.826 2.339-0.707-3.439-5.669z"></path>
<path d="M15.439 7.909c-1.204 0.808-2.509 1.535-3.869 2.206l-3.904 6.436c3.982-1.152 7.951-2.398 11.068-4.566l-0.884-1.071 2.589-0.784-2.511-4.14c-0.067 0.061-0.131 0.124-0.2 0.183l-1.45 2.754-0.839-1.018z"></path>
<path d="M29.715 29.188l-0.685-0.831c-0.433 0.29-0.883 0.564-1.343 0.831h2.027z"></path>
<path d="M21.011 11.074l-1.181 2.239-0.657-0.797c-3.199 2.246-7.211 3.53-11.098 4.659l-2.079 2.129-3.538 5.831c1.819-0.659 3.756-1.086 5.736-1.519 0.14-0.030 0.28-0.061 0.42-0.093l-0.318-1.154 3.39 0.433c3.672-0.956 7.296-2.391 10.526-5.742l-0.919-0.652 2.143-1.334-2.426-4z"></path>
<path d="M29.969 29.188h2.031l-1.087-1.793-0.944 1.793z"></path>
<path d="M14.977 7.35l-0.682-0.827 2.943-0.89c0.104-0.091 0.203-0.185 0.302-0.279l-1.543-2.541-3.717 6.128c0.939-0.498 1.845-1.022 2.695-1.591z"></path>
<path d="M9.883 29.176c0.307-0.078 0.617-0.156 0.929-0.235l-0.296-1.078 2.906 0.371c3.593-1.054 7.28-2.589 10.738-5.875l-0.645-0.459 2.585-1.61c0.098-0.116 0.194-0.236 0.291-0.355l-2.145-3.536-0.407 1.81-1.056-0.75c-3.546 3.703-7.541 5.185-11.424 6.16l-2.231 1.75-0.319-1.159c-0.152 0.034-0.305 0.067-0.457 0.1-2.27 0.496-4.479 0.988-6.505 1.837l-1.845 3.039h9.835c0.016-0.004 0.031-0.008 0.047-0.012z"></path>
</svg>
